<svg width="19" height="19" fill="none" xmlns="http://www.w3.org/2000/svg"><path d="m14.4 13.02-.27.35.32.31 3.35 3.34-.71.76-3.34-3.31-.31-.32-.35.28A7.5 7.5 0 0 1 1 8.56C1.01 4.45 4.4 1 8.51 1A7.5 7.5 0 0 1 16 8.46c0 1.76-.65 3.35-1.6 4.56ZM2 8.56a6.5 6.5 0 0 0 13 0 6.5 6.5 0 0 0-13 0Z" fill="#000"/><path d="m14.4 13.02-.27.35.32.31 3.35 3.34-.71.76-3.34-3.31-.31-.32-.35.28A7.5 7.5 0 0 1 1 8.56C1.01 4.45 4.4 1 8.51 1A7.5 7.5 0 0 1 16 8.46c0 1.76-.65 3.35-1.6 4.56ZM2 8.56a6.5 6.5 0 0 0 13 0 6.5 6.5 0 0 0-13 0Z" stroke="#000"/><path d="m14.4 13.02-.27.35.32.31 3.35 3.34-.71.76-3.34-3.31-.31-.32-.35.28A7.5 7.5 0 0 1 1 8.56C1.01 4.45 4.4 1 8.51 1A7.5 7.5 0 0 1 16 8.46c0 1.76-.65 3.35-1.6 4.56ZM2 8.56a6.5 6.5 0 0 0 13 0 6.5 6.5 0 0 0-13 0Z" stroke="#000" stroke-opacity=".2"/></svg>